<?xml version="1.0" standalone="no"?>
<!DOCTYPE svg PUBLIC "-//W3C//DTD SVG 20010904//EN"
 "http://www.w3.org/TR/2001/REC-SVG-20010904/DTD/svg10.dtd">
<svg version="1.0" xmlns="http://www.w3.org/2000/svg"
 width="64.000000pt" height="64.000000pt" viewBox="0 0 64.000000 64.000000"
 preserveAspectRatio="xMidYMid meet">
<metadata>
Created by potrace 1.16, written by Peter Selinger 2001-2019
</metadata>
<g transform="translate(0.000000,64.000000) scale(0.100000,-0.100000)"
fill="#000000" stroke="none">
<path d="M0 320 l0 -320 120 0 120 0 0 40 c0 36 -3 40 -24 40 -44 0 -73 18
-105 65 -33 49 -17 49 28 1 35 -37 93 -37 110 0 6 15 10 27 9 28 -2 1 -25 11
-53 22 -66 26 -95 69 -95 138 1 28 7 62 15 76 8 14 14 44 15 68 0 47 11 52 58
29 34 -18 216 -15 254 3 40 19 55 8 61 -47 3 -26 11 -67 18 -90 25 -82 -22
-163 -108 -184 -28 -8 -40 -15 -35 -23 4 -6 9 -45 12 -86 l5 -75 118 -3 117
-3 0 321 0 320 -320 0 -320 0 0 -320z"/>
</g>
</svg>
