<?xml version="1.0" standalone="no"?>
<!DOCTYPE svg PUBLIC "-//W3C//DTD SVG 20010904//EN"
 "http://www.w3.org/TR/2001/REC-SVG-20010904/DTD/svg10.dtd">
<svg version="1.0" xmlns="http://www.w3.org/2000/svg"
 width="64.000000pt" height="64.000000pt" viewBox="0 0 64.000000 64.000000"
 preserveAspectRatio="xMidYMid meet">
<metadata>
Created by potrace 1.16, written by Peter Selinger 2001-2019
</metadata>
<g transform="translate(0.000000,64.000000) scale(0.100000,-0.100000)"
fill="#000000" stroke="none">
<path d="M192 619 c-204 -79 -260 -370 -102 -529 124 -123 336 -123 460 0 159
160 102 452 -105 529 -74 28 -180 28 -253 0z m238 -172 c33 -11 35 -14 33 -52
-10 -130 -91 -215 -205 -215 -75 0 -86 10 -36 32 l43 19 -33 16 c-32 15 -43
33 -21 33 7 0 0 11 -15 25 -30 28 -34 45 -9 45 15 0 15 1 0 18 -10 10 -17 28
-17 40 0 22 0 22 39 -4 46 -30 124 -45 120 -23 -5 25 11 56 34 67 28 14 26 14
67 -1z"/>
</g>
</svg>
